<svg width="40" height="40" viewBox="0 0 40 40" fill="none" xmlns="http://www.w3.org/2000/svg">
<rect width="40" height="40" fill="white"/>
<path fill-rule="evenodd" clip-rule="evenodd" d="M10.3256 20.5C10.3256 19.3633 10.5185 18.2735 10.8628 17.2514L4.83628 12.7475C3.66174 15.0814 3 17.7111 3 20.5C3 23.2865 3.66093 25.9147 4.83384 28.2469L10.8571 23.7343C10.516 22.7169 10.3256 21.6311 10.3256 20.5Z" fill="#FBBC05"/>
<path fill-rule="evenodd" clip-rule="evenodd" d="M20.907 10.1591C23.4302 10.1591 25.7093 11.0341 27.5 12.4659L32.7093 7.375C29.5349 4.67045 25.4651 3 20.907 3C13.8305 3 7.7486 6.96057 4.83627 12.7475L10.8628 17.2514C12.2514 13.1261 16.2096 10.1591 20.907 10.1591Z" fill="#EB4335"/>
<path fill-rule="evenodd" clip-rule="evenodd" d="M20.907 30.8409C16.2096 30.8409 12.2514 27.8739 10.8628 23.7486L4.83627 28.2517C7.7486 34.0394 13.8305 38 20.907 38C25.2746 38 29.4445 36.4823 32.5742 33.6385L26.8537 29.3104C25.2396 30.3056 23.2072 30.8409 20.907 30.8409Z" fill="#34A853"/>
<path fill-rule="evenodd" clip-rule="evenodd" d="M38 20.5C38 19.4659 37.8372 18.3523 37.593 17.3182H20.907V24.0795H30.5116C30.0314 26.3848 28.7242 28.157 26.8537 29.3104L32.5742 33.6385C35.8617 30.6524 38 26.2042 38 20.5Z" fill="#4285F4"/>
</svg>
