<svg width="40" height="40" viewBox="0 0 40 40" fill="none" xmlns="http://www.w3.org/2000/svg">
<rect width="40" height="40" fill="white"/>
<path fill-rule="evenodd" clip-rule="evenodd" d="M40 6.94608C38.5303 7.61539 36.9478 8.06802 35.2879 8.27026C36.983 7.23017 38.2837 5.58096 38.8965 3.61635C37.3094 4.5794 35.5556 5.28 33.682 5.65559C32.1888 4.02082 30.0546 3 27.6927 3C23.1637 3 19.4893 6.7679 19.4893 11.4146C19.4893 12.0743 19.5598 12.7147 19.7006 13.3311C12.8802 12.9795 6.83453 9.63296 2.78453 4.53605C2.07783 5.78319 1.67399 7.23017 1.67399 8.77104C1.67399 11.6891 3.12262 14.2652 5.32488 15.7748C3.98193 15.7338 2.71409 15.351 1.60591 14.7251V14.8286C1.60591 18.9071 4.43505 22.309 8.19158 23.0794C7.50366 23.2769 6.77819 23.3756 6.02923 23.3756C5.50097 23.3756 4.98444 23.325 4.48435 23.2263C5.52914 26.5681 8.55783 29.0022 12.15 29.0672C9.34201 31.3255 5.80148 32.6714 1.95808 32.6714C1.296 32.6714 0.640957 32.6328 0 32.5558C3.63209 34.9393 7.94741 36.3333 12.5797 36.3333C27.6762 36.3333 35.9289 23.5128 35.9289 12.3921C35.9289 12.0261 35.9218 11.6602 35.9077 11.3014C37.5113 10.1145 38.9036 8.63381 40 6.94608Z" fill="#00AAEC"/>
</svg>
